<svg xmlns="http://www.w3.org/2000/svg" xmlns:xlink="http://www.w3.org/1999/xlink" width="471" height="299" viewBox="0 0 471 299">
    <defs>
        <path id="583veghgjb" d="M1.554 59.067H89.12c.859 0 1.555-.696 1.555-1.554V1.554C90.674.696 89.978 0 89.119 0H1.554C.696 0 0 .696 0 1.554v55.959c0 .858.696 1.554 1.554 1.554z"/>
        <path id="y4yght6ucd" d="M1.554 35.233H89.12c.859 0 1.555-.696 1.555-1.554V1.554C90.674.696 89.978 0 89.119 0H1.554C.696 0 0 .696 0 1.554V33.68c0 .858.696 1.554 1.554 1.554z"/>
        <path id="oaxgpay7pf" d="M1.554 59.067H89.12c.859 0 1.555-.696 1.555-1.554V1.554C90.674.696 89.978 0 89.119 0H1.554C.696 0 0 .696 0 1.554v55.959c0 .858.696 1.554 1.554 1.554z"/>
        <path id="thjcmypn6h" d="M1.554 35.233H89.12c.859 0 1.555-.696 1.555-1.554V1.554C90.674.696 89.978 0 89.119 0H1.554C.696 0 0 .696 0 1.554V33.68c0 .858.696 1.554 1.554 1.554z"/>
        <path id="1osywrv34j" d="M1.554 24.352H89.12c.859 0 1.555-.696 1.555-1.554V1.554C90.674.696 89.978 0 89.119 0H1.554C.696 0 0 .696 0 1.554v21.244c0 .858.696 1.554 1.554 1.554z"/>
        <path id="5qpybia48m" d="M1.554 24.352H89.12c.859 0 1.555-.696 1.555-1.554V1.554C90.674.696 89.978 0 89.119 0H1.554C.696 0 0 .696 0 1.554v21.244c0 .858.696 1.554 1.554 1.554z"/>
        <path id="je3ulhsqzo" d="M1.554 24.352H89.12c.859 0 1.555-.696 1.555-1.554V1.554C90.674.696 89.978 0 89.119 0H1.554C.696 0 0 .696 0 1.554v21.244c0 .858.696 1.554 1.554 1.554z"/>
        <path id="sj81svwveq" d="M1.554 24.352H89.12c.859 0 1.555-.696 1.555-1.554V1.554C90.674.696 89.978 0 89.119 0H1.554C.696 0 0 .696 0 1.554v21.244c0 .858.696 1.554 1.554 1.554z"/>
        <path id="nqixc7sbhr" d="M102.979 5.958L103.879 16.741 109.275 15.867 108.675 5.958z"/>
        <path id="wls9iydw7t" d="M52.165 7.06L57.225 8.654 61.159 -0.515 56.231 -3.027z"/>
        <path id="gkjnvzd6jv" d="M77.129-62.478l-5.344 23.66L54.863-1.556l6.531 2.661 31.173-40.812 9.797 47.91 6.531-1.182c4.19-41.306 7.607-83.436 3.415-103.363l-24.197-1.035L77.13-62.478z"/>
        <path id="yqsdv65u6x" d="M108.751 14.717c-2.005 1.108-4.387.63-6.91-.449l-1.377 4.698c-.717 2.441.735 4.986 3.241 5.685.102.028.204.053.307.074.984.206 2.01.1 2.926-.303l3.195-1.4c.571-.028 1.104-.028 1.602-.027 1.84.004 3.219.009 4.393-1.484.857-1.104 1.032-2.574.456-3.84-.57-1.27-1.799-2.141-3.214-2.28l-4.389-2.694-.23 2.02z"/>
        <path id="bhozxgmurz" d="M48.499 8.662c-1.46 2.105-.946 5.004 1.147 6.473.084.06.171.116.26.17.843.511 1.826.737 2.806.646l3.414-.317c2.524.728 4.043 1.81 6.042.473 1.153-.782 1.794-2.132 1.674-3.527-.114-1.396-.966-2.623-2.231-3.207l-3.184-3.981-.872 1.858c-2.217.417-4.265-.802-6.25-2.64L48.5 8.662z"/>
        <path id="g5uuvap89B" d="M145.829-112.453l-6.376 23.903c-.21.789.258 1.598 1.046 1.81l96.345 25.706c.789.21 1.596-.259 1.808-1.047l6.376-23.903c.21-.789-.26-1.597-1.047-1.808l-96.344-25.707c-.127-.034-.255-.05-.381-.05-.653 0-1.25.436-1.427 1.096z"/>
        <path id="pyhckmdddD" d="M150.81-102.037c-2.826 3.134-2.572 7.963.565 10.786 3.137 2.823 7.971 2.57 10.797-.565 2.824-3.133 2.572-7.963-.566-10.786-1.46-1.314-3.29-1.962-5.112-1.962-2.091 0-4.174.852-5.684 2.527"/>
        <path id="vlyxl4q2cG" d="M173.622-96.407c-.182.694.225 1.404.91 1.59L233.112-79c.686.188 1.392-.223 1.578-.917.185-.693-.222-1.408-.907-1.595l-.007-.003-58.583-15.816c-.11-.03-.22-.044-.33-.044-.57 0-1.09.386-1.242.969"/>
        <path id="870e3r4elI" d="M171.824-88.774c-.184.695.223 1.409.91 1.595l.003.001 58.582 15.816c.686.185 1.39-.228 1.573-.922.184-.695-.225-1.408-.91-1.593l-58.583-15.816c-.11-.03-.223-.045-.334-.045-.567 0-1.086.383-1.24.964"/>
        <path id="72yuiykdxK" d="M92.151-62.436L76.466 35.875c-.127.805.424 1.56 1.232 1.688l24.52 3.87c.808.127 1.567-.422 1.696-1.226l15.685-98.311c.127-.804-.424-1.56-1.232-1.688l-24.518-3.87c-.08-.012-.157-.018-.234-.018-.717 0-1.347.518-1.464 1.244z"/>
        <path id="lxfga98ivN" d="M103.556-29.35v.003l-9.554 59.875c-.112.702.368 1.36 1.074 1.471.705.112 1.368-.366 1.48-1.068l9.554-59.875c.113-.7-.367-1.36-1.072-1.473-.07-.01-.138-.016-.206-.016-.624 0-1.173.45-1.276 1.083"/>
        <path id="jt7x3a09iP" d="M95.912-30.696l-9.554 59.874c-.114.702.366 1.361 1.072 1.474.705.112 1.368-.365 1.48-1.067l.002-.003 9.554-59.875c.112-.702-.37-1.36-1.074-1.472-.07-.01-.138-.016-.204-.016-.626 0-1.175.451-1.276 1.085"/>
        <path id="454026lxnR" d="M87.24-117.06l19.798 10.639 29.261 6.137 6.949 3.514c2.48 1.254 4.873 1.04 5.79-1.576.836-2.386-.428-4.995-2.824-5.829-.219-.076-.443-.135-.671-.178l-6.604-1.227-28.284-9.347-17.134-12.1-6.28 9.966z"/>
        <path id="49rqdb0jkT" d="M98.753-164.744l-7.334.523c-3.655.262-6.763 2.761-7.798 6.273-1.752 2.379-2.689 4.752-2.099 7.112-2.623 1.79-3.063 3.953-1.885 6.39 1 1.534.989 3.028-.045 4.48-1.359 1.851-2.399 3.916-3.079 6.108l-.065.223c10.186-4.328 22.872-1.586 35.262.317.115-2.304 1.512-5.11.049-6.718-1.78-1.954-1.615-4.006-.545-6.07 2.737-5.28-1.184-10.898-5.143-15.57-1.673-1.968-4.122-3.09-6.686-3.09-.21 0-.42.006-.632.022z"/>
        <path id="ffnlzi5zrV" d="M86.34-149.716c0 5.831 4.732 10.557 10.568 10.557 5.837 0 10.568-4.726 10.568-10.557s-4.731-10.558-10.568-10.558c-5.836 0-10.568 4.727-10.568 10.558z"/>
        <path id="edbtj452oX" d="M84.093 -127.477L98.05 -130.445 99.831 -142.023 90.032 -144.1z"/>
        <path id="qlt0r65fuZ" d="M83.257-129.118c-5.703 8.136-1.755 20.366 4.42 33.54h24.745l-5.577-14.11c.405-4.855-1.637-8.425-4.56-11.534l-3.709-9.38c-2.702-1.792-5.106-2.715-7.37-2.716-2.757 0-5.308 1.367-7.949 4.2z"/>
        <path id="9ehjhtqcbab" d="M87.24-116.694l1.49 22.447 10.425 28.06.712 7.762c.254 2.77 1.721 4.683 4.456 4.063 2.495-.565 4.055-3.03 3.485-5.503-.052-.226-.121-.448-.207-.663l-2.489-6.25-7.148-28.945 1.191-20.971H87.24z"/>
        <path id="u5s28vmziad" d="M92.544-161.84l-2.493-.106v.188l-.768.025c-5.129 6.957-8.085 15.765-9.238 26.11l12.582.508c-.267-.96-1.12-2.009-.676-2.88 2.037-3.988 2.136-7.787.132-11.247-.173-.344-.176-.747-.008-1.094.441-1.11 1.446-1.901 2.637-2.08 4.705-.79 9.53-.52 14.113.793l-4.769-9.733-5.054-.212c.157-.168.312-.336.474-.503l-6.932.23z"/>
        <path id="duhyv9dkyaf" d="M86.689-124.755l-.004.067-.345 8.892h13.491l-.946-8.902c-.128-3.191-2.641-5.756-5.794-5.916-.104-.005-.208-.008-.31-.008-3.232 0-5.93 2.566-6.092 5.867z"/>
        <filter id="hrnun7dyaa" width="107.7%" height="111.9%" x="-3.9%" y="-4.2%" filterUnits="objectBoundingBox">
            <feOffset dy="1" in="SourceAlpha" result="shadowOffsetOuter1"/>
            <feGaussianBlur in="shadowOffsetOuter1" result="shadowBlurOuter1" stdDeviation="1"/>
            <feColorMatrix in="shadowBlurOuter1" values="0 0 0 0 0 0 0 0 0 0 0 0 0 0 0 0 0 0 0.170427229 0"/>
        </filter>
        <filter id="mm5j2g5lic" width="107.7%" height="119.9%" x="-3.9%" y="-7.1%" filterUnits="objectBoundingBox">
            <feOffset dy="1" in="SourceAlpha" result="shadowOffsetOuter1"/>
            <feGaussianBlur in="shadowOffsetOuter1" result="shadowBlurOuter1" stdDeviation="1"/>
            <feColorMatrix in="shadowBlurOuter1" values="0 0 0 0 0 0 0 0 0 0 0 0 0 0 0 0 0 0 0.170427229 0"/>
        </filter>
        <filter id="nuuhzxfjue" width="107.7%" height="111.9%" x="-3.9%" y="-4.2%" filterUnits="objectBoundingBox">
            <feOffset dy="1" in="SourceAlpha" result="shadowOffsetOuter1"/>
            <feGaussianBlur in="shadowOffsetOuter1" result="shadowBlurOuter1" stdDeviation="1"/>
            <feColorMatrix in="shadowBlurOuter1" values="0 0 0 0 0 0 0 0 0 0 0 0 0 0 0 0 0 0 0.170427229 0"/>
        </filter>
        <filter id="pulc7olttg" width="107.7%" height="119.9%" x="-3.9%" y="-7.1%" filterUnits="objectBoundingBox">
            <feOffset dy="1" in="SourceAlpha" result="shadowOffsetOuter1"/>
            <feGaussianBlur in="shadowOffsetOuter1" result="shadowBlurOuter1" stdDeviation="1"/>
            <feColorMatrix in="shadowBlurOuter1" values="0 0 0 0 0 0 0 0 0 0 0 0 0 0 0 0 0 0 0.170427229 0"/>
        </filter>
        <filter id="zbzitlagvi" width="107.7%" height="128.7%" x="-3.9%" y="-10.3%" filterUnits="objectBoundingBox">
            <feOffset dy="1" in="SourceAlpha" result="shadowOffsetOuter1"/>
            <feGaussianBlur in="shadowOffsetOuter1" result="shadowBlurOuter1" stdDeviation="1"/>
            <feColorMatrix in="shadowBlurOuter1" values="0 0 0 0 0 0 0 0 0 0 0 0 0 0 0 0 0 0 0.170427229 0"/>
        </filter>
        <filter id="dd65285gnl" width="107.7%" height="128.7%" x="-3.9%" y="-10.3%" filterUnits="objectBoundingBox">
            <feOffset dy="1" in="SourceAlpha" result="shadowOffsetOuter1"/>
            <feGaussianBlur in="shadowOffsetOuter1" result="shadowBlurOuter1" stdDeviation="1"/>
            <feColorMatrix in="shadowBlurOuter1" values="0 0 0 0 0 0 0 0 0 0 0 0 0 0 0 0 0 0 0.170427229 0"/>
        </filter>
        <filter id="e5wydfeipn" width="107.7%" height="128.7%" x="-3.9%" y="-10.3%" filterUnits="objectBoundingBox">
            <feOffset dy="1" in="SourceAlpha" result="shadowOffsetOuter1"/>
            <feGaussianBlur in="shadowOffsetOuter1" result="shadowBlurOuter1" stdDeviation="1"/>
            <feColorMatrix in="shadowBlurOuter1" values="0 0 0 0 0 0 0 0 0 0 0 0 0 0 0 0 0 0 0.170427229 0"/>
        </filter>
        <filter id="52j664oigp" width="107.7%" height="128.7%" x="-3.9%" y="-10.3%" filterUnits="objectBoundingBox">
            <feOffset dy="1" in="SourceAlpha" result="shadowOffsetOuter1"/>
            <feGaussianBlur in="shadowOffsetOuter1" result="shadowBlurOuter1" stdDeviation="1"/>
            <feColorMatrix in="shadowBlurOuter1" values="0 0 0 0 0 0 0 0 0 0 0 0 0 0 0 0 0 0 0.170427229 0"/>
        </filter>
        <linearGradient id="s539b98pck" x1="0%" x2="89.013%" y1="0%" y2="85.103%">
            <stop offset="0%" stop-color="#3BADF5"/>
            <stop offset="100%" stop-color="#8748F0"/>
        </linearGradient>
        <linearGradient id="epzxisyheE" x1="0%" x2="89.013%" y1=".09%" y2="85.04%">
            <stop offset="0%" stop-color="#3BADF5"/>
            <stop offset="100%" stop-color="#8748F0"/>
        </linearGradient>
        <linearGradient id="v1qninppgM" x1="0%" x2="89.013%" y1=".088%" y2="85.041%">
            <stop offset="0%" stop-color="#3BADF5"/>
            <stop offset="100%" stop-color="#8748F0"/>
        </linearGradient>
    </defs>
    <g fill="none" fill-rule="evenodd">
        <g>
            <g>
                <g>
                    <path fill="#E7EEF3" d="M316.27 217.227c0 .632-.184 1.25-.532 1.778-.308.463-.726.842-1.217 1.101-.455.236-.96.358-1.471.358H3.423c-1.774 0-3.215-1.45-3.215-3.237V3.494C.208 1.707 1.648.26 3.423.257H313.05c1.776 0 3.22 1.449 3.22 3.237v213.733z" transform="translate(-168.000000, -426.000000) translate(168.000000, 426.000000) translate(152.693472, 1.000000)"/>
                    <path fill="#3F3D56" d="M.726 19.428L316.788 19.428 316.788 17.873.726 17.873zM11.183 6.475c1.717 0 3.109 1.391 3.109 3.108s-1.392 3.109-3.11 3.109c-1.716 0-3.108-1.392-3.108-3.109s1.392-3.108 3.109-3.108M23.078 6.475c1.717 0 3.109 1.391 3.109 3.108s-1.392 3.109-3.109 3.109S19.97 11.3 19.97 9.583s1.392-3.108 3.11-3.108M34.974 6.475c1.716 0 3.108 1.391 3.108 3.108s-1.392 3.109-3.108 3.109c-1.717 0-3.11-1.392-3.11-3.109s1.393-3.108 3.11-3.108" transform="translate(-168.000000, -426.000000) translate(168.000000, 426.000000) translate(152.693472, 1.000000)"/>
                    <g>
                        <g>
                            <g transform="translate(-168.000000, -426.000000) translate(168.000000, 426.000000) translate(152.693472, 1.000000) translate(83.109637, 115.800933)">
                                <use fill="#000" filter="url(#hrnun7dyaa)" xlink:href="#583veghgjb"/>
                                <use fill="#FFF" xlink:href="#583veghgjb"/>
                            </g>
                            <path fill="#C8C8C8" fill-opacity=".6" d="M82.223 9.326H34.357c-.658 0-1.196-.582-1.196-1.295 0-.712.538-1.295 1.196-1.295h47.866c.658 0 1.197.583 1.197 1.295 0 .713-.539 1.295-1.197 1.295M7.673 8.031c0-.715.58-1.295 1.296-1.295h14.187c.715 0 1.295.58 1.295 1.295s-.58 1.295-1.295 1.295H8.969c-.716 0-1.296-.58-1.296-1.295zM7.673 17.358c0-.716.58-1.296 1.296-1.296h14.187c.715 0 1.295.58 1.295 1.296 0 .715-.58 1.295-1.295 1.295H8.969c-.716 0-1.296-.58-1.296-1.295zM7.673 26.684c0-.715.58-1.295 1.296-1.295h14.187c.715 0 1.295.58 1.295 1.295s-.58 1.295-1.295 1.295H8.969c-.716 0-1.296-.58-1.296-1.295zM7.673 36.01c0-.715.58-1.295 1.296-1.295h14.187c.715 0 1.295.58 1.295 1.295 0 .716-.58 1.296-1.295 1.296H8.969c-.716 0-1.296-.58-1.296-1.296zM82.223 27.98H34.357c-.658 0-1.196-.584-1.196-1.296 0-.712.538-1.295 1.196-1.295h47.866c.658 0 1.197.583 1.197 1.295s-.539 1.295-1.197 1.295M82.223 18.653H34.357c-.658 0-1.196-.583-1.196-1.295 0-.713.538-1.296 1.196-1.296h47.866c.658 0 1.197.583 1.197 1.296 0 .712-.539 1.295-1.197 1.295M82.223 37.306H34.357c-.658 0-1.196-.583-1.196-1.296 0-.712.538-1.295 1.196-1.295h47.866c.658 0 1.197.583 1.197 1.295 0 .713-.539 1.296-1.197 1.296" transform="translate(-168.000000, -426.000000) translate(168.000000, 426.000000) translate(152.693472, 1.000000) translate(83.109637, 115.800933)"/>
                            <path fill="#C9A8FF" d="M24.87 48.187c0 2.289-1.855 4.145-4.145 4.145-2.289 0-4.145-1.856-4.145-4.145 0-2.29 1.856-4.146 4.145-4.146 2.29 0 4.145 1.856 4.145 4.146M41.45 48.187c0 2.289-1.855 4.145-4.144 4.145-2.29 0-4.145-1.856-4.145-4.145 0-2.29 1.855-4.146 4.145-4.146 2.289 0 4.145 1.856 4.145 4.146M58.031 48.187c0 2.289-1.856 4.145-4.145 4.145-2.29 0-4.145-1.856-4.145-4.145 0-2.29 1.856-4.146 4.145-4.146 2.29 0 4.145 1.856 4.145 4.146M74.611 48.187c0 2.289-1.855 4.145-4.145 4.145-2.289 0-4.145-1.856-4.145-4.145 0-2.29 1.856-4.146 4.145-4.146 2.29 0 4.145 1.856 4.145 4.146" transform="translate(-168.000000, -426.000000) translate(168.000000, 426.000000) translate(152.693472, 1.000000) translate(83.109637, 115.800933)"/>
                        </g>
                        <g>
                            <g transform="translate(-168.000000, -426.000000) translate(168.000000, 426.000000) translate(152.693472, 1.000000) translate(83.109637, 115.800933) translate(0.000000, 69.430052)">
                                <use fill="#000" filter="url(#mm5j2g5lic)" xlink:href="#y4yght6ucd"/>
                                <use fill="#FFF" xlink:href="#y4yght6ucd"/>
                            </g>
                            <path fill="#C8C8C8" fill-opacity=".6" d="M82.223 9.326H34.357c-.658 0-1.196-.582-1.196-1.295 0-.712.538-1.295 1.196-1.295h47.866c.658 0 1.197.583 1.197 1.295 0 .713-.539 1.295-1.197 1.295M7.673 8.031c0-.715.58-1.295 1.296-1.295h14.187c.715 0 1.295.58 1.295 1.295s-.58 1.295-1.295 1.295H8.969c-.716 0-1.296-.58-1.296-1.295zM7.673 17.358c0-.716.58-1.296 1.296-1.296h14.187c.715 0 1.295.58 1.295 1.296 0 .715-.58 1.295-1.295 1.295H8.969c-.716 0-1.296-.58-1.296-1.295zM7.673 26.684c0-.715.58-1.295 1.296-1.295h14.187c.715 0 1.295.58 1.295 1.295s-.58 1.295-1.295 1.295H8.969c-.716 0-1.296-.58-1.296-1.295zM82.223 27.98H34.357c-.658 0-1.196-.584-1.196-1.296 0-.712.538-1.295 1.196-1.295h47.866c.658 0 1.197.583 1.197 1.295s-.539 1.295-1.197 1.295M82.223 18.653H34.357c-.658 0-1.196-.583-1.196-1.295 0-.713.538-1.296 1.196-1.296h47.866c.658 0 1.197.583 1.197 1.296 0 .712-.539 1.295-1.197 1.295" transform="translate(-168.000000, -426.000000) translate(168.000000, 426.000000) translate(152.693472, 1.000000) translate(83.109637, 115.800933) translate(0.000000, 69.430052)"/>
                        </g>
                        <g>
                            <g transform="translate(-168.000000, -426.000000) translate(168.000000, 426.000000) translate(152.693472, 1.000000) translate(83.109637, 115.800933) translate(116.580311, 0.000000)">
                                <use fill="#000" filter="url(#nuuhzxfjue)" xlink:href="#oaxgpay7pf"/>
                                <use fill="#FFF" xlink:href="#oaxgpay7pf"/>
                            </g>
                            <path fill="#C8C8C8" fill-opacity=".6" d="M82.223 9.326H34.357c-.658 0-1.196-.582-1.196-1.295 0-.712.538-1.295 1.196-1.295h47.866c.658 0 1.197.583 1.197 1.295 0 .713-.539 1.295-1.197 1.295M7.673 8.031c0-.715.58-1.295 1.296-1.295h14.187c.715 0 1.295.58 1.295 1.295s-.58 1.295-1.295 1.295H8.969c-.716 0-1.296-.58-1.296-1.295zM7.673 17.358c0-.716.58-1.296 1.296-1.296h14.187c.715 0 1.295.58 1.295 1.296 0 .715-.58 1.295-1.295 1.295H8.969c-.716 0-1.296-.58-1.296-1.295zM7.673 26.684c0-.715.58-1.295 1.296-1.295h14.187c.715 0 1.295.58 1.295 1.295s-.58 1.295-1.295 1.295H8.969c-.716 0-1.296-.58-1.296-1.295zM7.673 36.01c0-.715.58-1.295 1.296-1.295h14.187c.715 0 1.295.58 1.295 1.295 0 .716-.58 1.296-1.295 1.296H8.969c-.716 0-1.296-.58-1.296-1.296zM82.223 27.98H34.357c-.658 0-1.196-.584-1.196-1.296 0-.712.538-1.295 1.196-1.295h47.866c.658 0 1.197.583 1.197 1.295s-.539 1.295-1.197 1.295M82.223 18.653H34.357c-.658 0-1.196-.583-1.196-1.295 0-.713.538-1.296 1.196-1.296h47.866c.658 0 1.197.583 1.197 1.296 0 .712-.539 1.295-1.197 1.295M82.223 37.306H34.357c-.658 0-1.196-.583-1.196-1.296 0-.712.538-1.295 1.196-1.295h47.866c.658 0 1.197.583 1.197 1.295 0 .713-.539 1.296-1.197 1.296" transform="translate(-168.000000, -426.000000) translate(168.000000, 426.000000) translate(152.693472, 1.000000) translate(83.109637, 115.800933) translate(116.580311, 0.000000)"/>
                            <path fill="#C9A8FF" d="M24.87 48.187c0 2.289-1.855 4.145-4.145 4.145-2.289 0-4.145-1.856-4.145-4.145 0-2.29 1.856-4.146 4.145-4.146 2.29 0 4.145 1.856 4.145 4.146M41.45 48.187c0 2.289-1.855 4.145-4.144 4.145-2.29 0-4.145-1.856-4.145-4.145 0-2.29 1.855-4.146 4.145-4.146 2.289 0 4.145 1.856 4.145 4.146M58.031 48.187c0 2.289-1.856 4.145-4.145 4.145-2.29 0-4.145-1.856-4.145-4.145 0-2.29 1.856-4.146 4.145-4.146 2.29 0 4.145 1.856 4.145 4.146M74.611 48.187c0 2.289-1.855 4.145-4.145 4.145-2.289 0-4.145-1.856-4.145-4.145 0-2.29 1.856-4.146 4.145-4.146 2.29 0 4.145 1.856 4.145 4.146" transform="translate(-168.000000, -426.000000) translate(168.000000, 426.000000) translate(152.693472, 1.000000) translate(83.109637, 115.800933) translate(116.580311, 0.000000)"/>
                        </g>
                        <g>
                            <g transform="translate(-168.000000, -426.000000) translate(168.000000, 426.000000) translate(152.693472, 1.000000) translate(83.109637, 115.800933) translate(116.580311, 69.430052)">
                                <use fill="#000" filter="url(#pulc7olttg)" xlink:href="#thjcmypn6h"/>
                                <use fill="#FFF" xlink:href="#thjcmypn6h"/>
                            </g>
                            <path fill="#C8C8C8" fill-opacity=".6" d="M82.223 9.326H34.357c-.658 0-1.196-.582-1.196-1.295 0-.712.538-1.295 1.196-1.295h47.866c.658 0 1.197.583 1.197 1.295 0 .713-.539 1.295-1.197 1.295M7.673 8.031c0-.715.58-1.295 1.296-1.295h14.187c.715 0 1.295.58 1.295 1.295s-.58 1.295-1.295 1.295H8.969c-.716 0-1.296-.58-1.296-1.295zM7.673 17.358c0-.716.58-1.296 1.296-1.296h14.187c.715 0 1.295.58 1.295 1.296 0 .715-.58 1.295-1.295 1.295H8.969c-.716 0-1.296-.58-1.296-1.295zM7.673 26.684c0-.715.58-1.295 1.296-1.295h14.187c.715 0 1.295.58 1.295 1.295s-.58 1.295-1.295 1.295H8.969c-.716 0-1.296-.58-1.296-1.295zM82.223 27.98H34.357c-.658 0-1.196-.584-1.196-1.296 0-.712.538-1.295 1.196-1.295h47.866c.658 0 1.197.583 1.197 1.295s-.539 1.295-1.197 1.295M82.223 18.653H34.357c-.658 0-1.196-.583-1.196-1.295 0-.713.538-1.296 1.196-1.296h47.866c.658 0 1.197.583 1.197 1.296 0 .712-.539 1.295-1.197 1.295" transform="translate(-168.000000, -426.000000) translate(168.000000, 426.000000) translate(152.693472, 1.000000) translate(83.109637, 115.800933) translate(116.580311, 69.430052)"/>
                        </g>
                    </g>
                    <g>
                        <g>
                            <g transform="translate(-168.000000, -426.000000) translate(168.000000, 426.000000) translate(152.693472, 1.000000) translate(83.109637, 37.562591)">
                                <use fill="#000" filter="url(#zbzitlagvi)" xlink:href="#1osywrv34j"/>
                                <use fill="#FFF" xlink:href="#1osywrv34j"/>
                            </g>
                            <path fill="#C8C8C8" fill-opacity=".6" d="M82.124 9.326H30.311c-.713 0-1.295-.582-1.295-1.295 0-.712.582-1.295 1.295-1.295h51.813c.713 0 1.296.583 1.296 1.295 0 .713-.583 1.295-1.296 1.295M82.124 17.617H30.311c-.713 0-1.295-.583-1.295-1.296 0-.712.582-1.295 1.295-1.295h51.813c.713 0 1.296.583 1.296 1.295 0 .713-.583 1.296-1.296 1.296" transform="translate(-168.000000, -426.000000) translate(168.000000, 426.000000) translate(152.693472, 1.000000) translate(83.109637, 37.562591)"/>
                            <path fill="url(#s539b98pck)" d="M21.762 12.176c0 3.863-3.132 6.995-6.995 6.995s-6.995-3.132-6.995-6.995 3.132-6.995 6.995-6.995 6.995 3.132 6.995 6.995" transform="translate(-168.000000, -426.000000) translate(168.000000, 426.000000) translate(152.693472, 1.000000) translate(83.109637, 37.562591)"/>
                        </g>
                        <g>
                            <g transform="translate(-168.000000, -426.000000) translate(168.000000, 426.000000) translate(152.693472, 1.000000) translate(83.109637, 37.562591) translate(0.000000, 34.715026)">
                                <use fill="#000" filter="url(#dd65285gnl)" xlink:href="#5qpybia48m"/>
                                <use fill="#FFF" xlink:href="#5qpybia48m"/>
                            </g>
                            <path fill="#C8C8C8" fill-opacity=".6" d="M82.124 9.326H30.311c-.713 0-1.295-.582-1.295-1.295 0-.712.582-1.295 1.295-1.295h51.813c.713 0 1.296.583 1.296 1.295 0 .713-.583 1.295-1.296 1.295M82.124 17.617H30.311c-.713 0-1.295-.583-1.295-1.296 0-.712.582-1.295 1.295-1.295h51.813c.713 0 1.296.583 1.296 1.295 0 .713-.583 1.296-1.296 1.296" transform="translate(-168.000000, -426.000000) translate(168.000000, 426.000000) translate(152.693472, 1.000000) translate(83.109637, 37.562591) translate(0.000000, 34.715026)"/>
                            <path fill="url(#s539b98pck)" d="M21.762 12.176c0 3.863-3.132 6.995-6.995 6.995s-6.995-3.132-6.995-6.995 3.132-6.995 6.995-6.995 6.995 3.132 6.995 6.995" transform="translate(-168.000000, -426.000000) translate(168.000000, 426.000000) translate(152.693472, 1.000000) translate(83.109637, 37.562591) translate(0.000000, 34.715026)"/>
                        </g>
                        <g>
                            <g transform="translate(-168.000000, -426.000000) translate(168.000000, 426.000000) translate(152.693472, 1.000000) translate(83.109637, 37.562591) translate(116.580311, 34.715026)">
                                <use fill="#000" filter="url(#e5wydfeipn)" xlink:href="#je3ulhsqzo"/>
                                <use fill="#FFF" xlink:href="#je3ulhsqzo"/>
                            </g>
                            <path fill="#C8C8C8" fill-opacity=".6" d="M82.124 9.326H30.311c-.713 0-1.295-.582-1.295-1.295 0-.712.582-1.295 1.295-1.295h51.813c.713 0 1.296.583 1.296 1.295 0 .713-.583 1.295-1.296 1.295M82.124 17.617H30.311c-.713 0-1.295-.583-1.295-1.296 0-.712.582-1.295 1.295-1.295h51.813c.713 0 1.296.583 1.296 1.295 0 .713-.583 1.296-1.296 1.296" transform="translate(-168.000000, -426.000000) translate(168.000000, 426.000000) translate(152.693472, 1.000000) translate(83.109637, 37.562591) translate(116.580311, 34.715026)"/>
                            <path fill="url(#s539b98pck)" d="M21.762 12.176c0 3.863-3.132 6.995-6.995 6.995s-6.995-3.132-6.995-6.995 3.132-6.995 6.995-6.995 6.995 3.132 6.995 6.995" transform="translate(-168.000000, -426.000000) translate(168.000000, 426.000000) translate(152.693472, 1.000000) translate(83.109637, 37.562591) translate(116.580311, 34.715026)"/>
                        </g>
                        <g>
                            <g transform="translate(-168.000000, -426.000000) translate(168.000000, 426.000000) translate(152.693472, 1.000000) translate(83.109637, 37.562591) translate(116.580311, 0.000000)">
                                <use fill="#000" filter="url(#52j664oigp)" xlink:href="#sj81svwveq"/>
                                <use fill="#FFF" xlink:href="#sj81svwveq"/>
                            </g>
                            <path fill="#C8C8C8" fill-opacity=".6" d="M82.124 9.326H30.311c-.713 0-1.295-.582-1.295-1.295 0-.712.582-1.295 1.295-1.295h51.813c.713 0 1.296.583 1.296 1.295 0 .713-.583 1.295-1.296 1.295M82.124 17.617H30.311c-.713 0-1.295-.583-1.295-1.296 0-.712.582-1.295 1.295-1.295h51.813c.713 0 1.296.583 1.296 1.295 0 .713-.583 1.296-1.296 1.296" transform="translate(-168.000000, -426.000000) translate(168.000000, 426.000000) translate(152.693472, 1.000000) translate(83.109637, 37.562591) translate(116.580311, 0.000000)"/>
                            <path fill="url(#s539b98pck)" d="M21.762 12.176c0 3.863-3.132 6.995-6.995 6.995s-6.995-3.132-6.995-6.995 3.132-6.995 6.995-6.995 6.995 3.132 6.995 6.995" transform="translate(-168.000000, -426.000000) translate(168.000000, 426.000000) translate(152.693472, 1.000000) translate(83.109637, 37.562591) translate(116.580311, 0.000000)"/>
                        </g>
                    </g>
                    <g>
                        <path fill="#8748F0" d="M15.544 90.865c8.585 0 15.544 6.96 15.544 15.544 0 8.585-6.959 15.544-15.544 15.544C6.96 121.953 0 114.993 0 106.41s6.96-15.544 15.544-15.544" transform="translate(-168.000000, -426.000000) translate(168.000000, 426.000000) translate(152.693472, 1.000000) translate(26.114819, 36.526321)"/>
                        <path fill="#FFF" d="M8.29 100.45c-.286.001-.518.233-.518.519v10.88c0 .287.232.519.518.519h14.508c.286 0 .518-.232.518-.518v-8.29c0-.287-.232-.518-.518-.519h-8.54l-1.442-2.344c-.094-.154-.261-.247-.442-.246H8.29zm14.508 12.954H8.29c-.858 0-1.553-.696-1.554-1.554v-10.881c0-.858.696-1.554 1.554-1.555h4.084c.54-.002 1.043.28 1.325.74l1.139 1.851h7.96c.858.001 1.554.696 1.555 1.554v8.29c-.001.859-.697 1.554-1.555 1.555z" transform="translate(-168.000000, -426.000000) translate(168.000000, 426.000000) translate(152.693472, 1.000000) translate(26.114819, 36.526321)"/>
                        <path fill="#8748F0" d="M15.544 136.297c8.585 0 15.544 6.96 15.544 15.545 0 8.584-6.959 15.544-15.544 15.544C6.96 167.386 0 160.426 0 151.842c0-8.585 6.96-15.545 15.544-15.545" transform="translate(-168.000000, -426.000000) translate(168.000000, 426.000000) translate(152.693472, 1.000000) translate(26.114819, 36.526321)"/>
                        <path fill="#FFF" d="M8.809 143.033c-.286 0-.519.233-.519.519v16.58c0 .286.233.518.519.518H22.28c.286 0 .518-.232.518-.518v-13.599c0-.157-.07-.306-.194-.404l-3.71-2.982c-.092-.073-.206-.114-.324-.114H8.809zm13.471 18.653H8.81c-.858 0-1.554-.696-1.555-1.554v-16.58c0-.858.697-1.554 1.555-1.555h9.76c.355 0 .699.121.975.343l3.71 2.982c.368.293.581.74.58 1.211v13.599c0 .858-.696 1.553-1.554 1.554z" transform="translate(-168.000000, -426.000000) translate(168.000000, 426.000000) translate(152.693472, 1.000000) translate(26.114819, 36.526321)"/>
                        <path fill="#FFF" d="M19.69 149.251H11.4c-.287 0-.519-.232-.519-.518 0-.286.232-.518.518-.518h8.29c.286 0 .519.232.519.518 0 .286-.233.518-.519.518M19.69 152.36H11.4c-.287 0-.519-.232-.519-.518 0-.286.232-.518.518-.518h8.29c.286 0 .519.232.519.518 0 .286-.233.518-.519.518M19.69 155.469H11.4c-.287 0-.519-.232-.519-.518 0-.286.232-.519.518-.519h8.29c.286 0 .519.233.519.519 0 .286-.233.518-.519.518" transform="translate(-168.000000, -426.000000) translate(168.000000, 426.000000) translate(152.693472, 1.000000) translate(26.114819, 36.526321)"/>
                        <path fill="#8748F0" d="M15.544 44.742c8.585 0 15.544 6.959 15.544 15.544 0 8.584-6.959 15.544-15.544 15.544C6.96 75.83 0 68.87 0 60.286 0 51.7 6.96 44.742 15.544 44.742" transform="translate(-168.000000, -426.000000) translate(168.000000, 426.000000) translate(152.693472, 1.000000) translate(26.114819, 36.526321)"/>
                        <path fill="#FFF" d="M8.29 55.623c-.286 0-.518.232-.518.518v8.29c0 .286.232.518.518.518h14.508c.286 0 .518-.232.518-.518v-8.29c0-.286-.232-.518-.518-.518H8.29zm14.508 10.362H8.29c-.858 0-1.553-.696-1.554-1.554v-8.29c0-.858.696-1.554 1.554-1.555h14.508c.858.001 1.554.697 1.555 1.555v8.29c-.001.858-.697 1.554-1.555 1.554z" transform="translate(-168.000000, -426.000000) translate(168.000000, 426.000000) translate(152.693472, 1.000000) translate(26.114819, 36.526321)"/>
                        <path fill="#FFF" d="M20.499 64.949l-2.288-3.962-1.624 2.812c-.092.16-.263.26-.448.26s-.357-.1-.45-.26l-2.476-4.29-3.141 5.44h10.427zm0 1.036H10.072c-.573 0-1.037-.463-1.037-1.036 0-.181.048-.36.14-.518l3.14-5.44c.286-.496.92-.666 1.416-.38.157.091.288.222.38.38l2.028 3.513 1.175-2.035c.286-.496.92-.666 1.415-.38.158.091.289.222.38.38l2.287 3.962c.287.496.117 1.13-.38 1.415-.157.092-.335.14-.517.14zM21.244 56.659c.572 0 1.036.464 1.036 1.036 0 .572-.464 1.036-1.036 1.036-.572 0-1.037-.464-1.037-1.036 0-.572.465-1.036 1.037-1.036" transform="translate(-168.000000, -426.000000) translate(168.000000, 426.000000) translate(152.693472, 1.000000) translate(26.114819, 36.526321)"/>
                        <path fill="#8748F0" d="M15.544 0c8.585 0 15.544 6.96 15.544 15.544 0 8.585-6.959 15.544-15.544 15.544C6.96 31.088 0 24.13 0 15.544 0 6.96 6.96 0 15.544 0" transform="translate(-168.000000, -426.000000) translate(168.000000, 426.000000) translate(152.693472, 1.000000) translate(26.114819, 36.526321)"/>
                        <path fill="#FFF" d="M15.544 7.513c-2.003 0-3.627 1.624-3.627 3.627 0 2.003 1.624 3.627 3.627 3.627 2.003 0 3.627-1.624 3.627-3.627-.002-2.002-1.625-3.625-3.627-3.627m0 8.29c-2.575 0-4.663-2.088-4.663-4.663s2.088-4.663 4.663-4.663 4.664 2.088 4.664 4.663c-.004 2.574-2.09 4.66-4.664 4.663M15.544 17.876c-2.717.003-4.919 2.205-4.922 4.922 0 .43.348.777.777.777h8.29c.43 0 .777-.348.778-.777-.004-2.717-2.206-4.919-4.923-4.922m4.145 6.736H11.4c-1-.001-1.812-.813-1.813-1.814 0-3.291 2.667-5.958 5.958-5.958 3.291 0 5.959 2.667 5.959 5.958-.001 1.001-.813 1.813-1.814 1.814" transform="translate(-168.000000, -426.000000) translate(168.000000, 426.000000) translate(152.693472, 1.000000) translate(26.114819, 36.526321)"/>
                    </g>
                    <path stroke="#3F3D56" stroke-width="1.554" d="M316.27 217.227c0 .632-.184 1.25-.531 1.777-.31.464-.727.843-1.218 1.102-.455.236-.96.358-1.471.358H3.423c-1.775 0-3.215-1.45-3.215-3.237V3.494c0-1.787 1.44-3.237 3.215-3.237H313.05c1.777 0 3.22 1.448 3.22 3.237v213.733z" transform="translate(-168.000000, -426.000000) translate(168.000000, 426.000000) translate(152.693472, 1.000000)"/>
                </g>
                <g transform="translate(-168.000000, -426.000000) translate(168.000000, 426.000000) translate(0.000000, 252.137720)">
                    <path fill="#000" d="M165.825 22.878c0 12.591-37.116 22.798-82.902 22.798C37.138 45.676.022 35.469.022 22.878.022 10.287 37.138.08 82.923.08c45.786 0 82.902 10.207 82.902 22.798" opacity=".06"/>
                    <mask id="kvg0ef4gis" fill="#fff">
                        <use xlink:href="#nqixc7sbhr"/>
                    </mask>
                    <path fill="#FFB8B8" d="M100.388 19.332L111.865 19.332 111.865 3.367 100.388 3.367z" mask="url(#kvg0ef4gis)"/>
                    <mask id="1wo9hbpscu" fill="#fff">
                        <use xlink:href="#wls9iydw7t"/>
                    </mask>
                    <path fill="#D59071" d="M49.575 11.245L63.749 11.245 63.749 -5.618 49.575 -5.618z" mask="url(#1wo9hbpscu)"/>
                    <mask id="9745u608tw" fill="#fff">
                        <use xlink:href="#gkjnvzd6jv"/>
                    </mask>
                    <path fill="#02001F" d="M52.273 10.795L116.812 10.795 116.812 -99.966 52.273 -99.966z" mask="url(#9745u608tw)"/>
                    <mask id="qjz1dqki6y" fill="#fff">
                        <use xlink:href="#yqsdv65u6x"/>
                    </mask>
                    <path fill="#02001F" d="M97.69 27.418L119.51 27.418 119.51 10.107 97.69 10.107z" mask="url(#qjz1dqki6y)"/>
                    <mask id="vqpojog95A" fill="#fff">
                        <use xlink:href="#bhozxgmurz"/>
                    </mask>
                    <path fill="#02001F" d="M45.078 19.331L66.448 19.331 66.448 2.019 45.078 2.019z" mask="url(#vqpojog95A)"/>
                    <mask id="uvaxhbasxC" fill="#fff">
                        <use xlink:href="#g5uuvap89B"/>
                    </mask>
                    <path fill="#FFF" d="M136.812 -58.393L247.668 -58.393 247.668 -116.14 136.812 -116.14z" mask="url(#uvaxhbasxC)"/>
                    <path stroke="#3BADF5" stroke-width="2.073" d="M147.637-113.5c-.789-.209-1.597.26-1.808 1.048l-6.376 23.902c-.21.789.259 1.598 1.046 1.809l96.345 25.707c.788.21 1.597-.259 1.808-1.047l6.376-23.903c.21-.788-.259-1.597-1.047-1.808l-96.344-25.707z" mask="url(#uvaxhbasxC)"/>
                    <mask id="dw0u1d14mF" fill="#fff">
                        <use xlink:href="#pyhckmdddD"/>
                    </mask>
                    <path fill="url(#epzxisyheE)" d="M150.81-102.037c-2.826 3.134-2.572 7.963.565 10.786 3.137 2.823 7.971 2.57 10.797-.565 2.824-3.133 2.572-7.963-.566-10.786-1.46-1.314-3.29-1.962-5.112-1.962-2.091 0-4.174.852-5.684 2.527" mask="url(#dw0u1d14mF)"/>
                    <mask id="quw5kzdejH" fill="#fff">
                        <use xlink:href="#vlyxl4q2cG"/>
                    </mask>
                    <path fill="#8748F0" d="M173.622-96.407c-.182.694.225 1.404.91 1.59L233.112-79c.686.188 1.392-.223 1.578-.917.185-.693-.222-1.408-.907-1.595l-.007-.003-58.583-15.816c-.11-.03-.22-.044-.33-.044-.57 0-1.09.386-1.242.969" mask="url(#quw5kzdejH)"/>
                    <mask id="4qzlgv46lJ" fill="#fff">
                        <use xlink:href="#870e3r4elI"/>
                    </mask>
                    <path fill="#8748F0" d="M171.824-88.774c-.184.695.223 1.409.91 1.595l.003.001 58.582 15.816c.686.185 1.39-.228 1.573-.922.184-.695-.225-1.408-.91-1.593l-58.583-15.816c-.11-.03-.223-.045-.334-.045-.567 0-1.086.383-1.24.964" mask="url(#4qzlgv46lJ)"/>
                    <mask id="ijy1v9b6bL" fill="#fff">
                        <use xlink:href="#72yuiykdxK"/>
                    </mask>
                    <path fill="#FFF" d="M73.858 44.041L122.208 44.041 122.208 -66.27 73.858 -66.27z" mask="url(#ijy1v9b6bL)"/>
                    <path stroke="#3BADF5" stroke-width="2.073" d="M119.599-58.104c.127-.804-.424-1.56-1.232-1.687l-24.519-3.87c-.808-.127-1.568.42-1.697 1.225L76.466 35.875c-.127.805.424 1.56 1.232 1.688l24.519 3.87c.808.126 1.568-.422 1.697-1.225l15.685-98.312z" mask="url(#ijy1v9b6bL)"/>
                    <path fill="url(#v1qninppgM)" d="M96.234-47.506c0 4.218 3.422 7.638 7.644 7.638 4.222 0 7.645-3.42 7.645-7.638s-3.423-7.638-7.645-7.638c-4.222 0-7.644 3.42-7.644 7.638" mask="url(#ijy1v9b6bL)"/>
                    <mask id="v8ne92uz6O" fill="#fff">
                        <use xlink:href="#lxfga98ivN"/>
                    </mask>
                    <path fill="#8748F0" d="M103.556-29.35v.003l-9.554 59.875c-.112.702.368 1.36 1.074 1.471.705.112 1.368-.366 1.48-1.068l9.554-59.875c.113-.7-.367-1.36-1.072-1.473-.07-.01-.138-.016-.206-.016-.624 0-1.173.45-1.276 1.083" mask="url(#v8ne92uz6O)"/>
                    <mask id="2fet82z7iQ" fill="#fff">
                        <use xlink:href="#jt7x3a09iP"/>
                    </mask>
                    <path fill="#8748F0" d="M95.912-30.696l-9.554 59.874c-.114.702.366 1.361 1.072 1.474.705.112 1.368-.365 1.48-1.067l.002-.003 9.554-59.875c.112-.702-.37-1.36-1.074-1.472-.07-.01-.138-.016-.204-.016-.626 0-1.175.451-1.276 1.085" mask="url(#2fet82z7iQ)"/>
                    <mask id="zosy821r5S" fill="#fff">
                        <use xlink:href="#454026lxnR"/>
                    </mask>
                    <path fill="#D59071" d="M84.65 -93.437L151.887 -93.437 151.887 -129.618 84.65 -129.618z" mask="url(#zosy821r5S)"/>
                    <mask id="n70uu0kdcU" fill="#fff">
                        <use xlink:href="#49rqdb0jkT"/>
                    </mask>
                    <path fill="#02001F" d="M73.858 -130.727L115.013 -130.727 115.013 -167.358 73.858 -167.358z" mask="url(#n70uu0kdcU)"/>
                    <mask id="n2t63r464W" fill="#fff">
                        <use xlink:href="#ffnlzi5zrV"/>
                    </mask>
                    <path fill="#D59071" d="M83.75 -136.568L110.067 -136.568 110.067 -162.865 83.75 -162.865z" mask="url(#n2t63r464W)"/>
                    <mask id="cnf00mctkY" fill="#fff">
                        <use xlink:href="#edbtj452oX"/>
                    </mask>
                    <path fill="#D59071" d="M81.502 -124.886L102.422 -124.886 102.422 -146.691 81.502 -146.691z" mask="url(#cnf00mctkY)"/>
                    <mask id="en1wpv2jyaa" fill="#fff">
                        <use xlink:href="#qlt0r65fuZ"/>
                    </mask>
                    <path fill="#3BADF5" d="M77.904 -92.988L115.013 -92.988 115.013 -135.908 77.904 -135.908z" mask="url(#en1wpv2jyaa)"/>
                    <mask id="8i3xnzne5ac" fill="#fff">
                        <use xlink:href="#9ehjhtqcbab"/>
                    </mask>
                    <path fill="#D59071" d="M84.65 -51.654L110.516 -51.654 110.516 -119.285 84.65 -119.285z" mask="url(#8i3xnzne5ac)"/>
                    <mask id="abx5z4dyiae" fill="#fff">
                        <use xlink:href="#u5s28vmziad"/>
                    </mask>
                    <path fill="#02001F" d="M77.454 -132.524L111.415 -132.524 111.415 -164.662 77.454 -164.662z" mask="url(#abx5z4dyiae)"/>
                    <mask id="q0a23nxumag" fill="#fff">
                        <use xlink:href="#duhyv9dkyaf"/>
                    </mask>
                    <path fill="#3BADF5" d="M83.75 -113.205L102.422 -113.205 102.422 -133.212 83.75 -133.212z" mask="url(#q0a23nxumag)"/>
                </g>
            </g>
        </g>
    </g>
</svg>
