<svg xmlns="http://www.w3.org/2000/svg" width="25" height="25" viewBox="0 0 25 25">
    <g fill="none" fill-rule="evenodd">
        <g fill="#B9B9B9" fill-rule="nonzero">
            <g>
                <g>
                    <g>
                        <g>
                            <g>
                                <path d="M12.287 13.563c2.012 0 3.658-1.688 3.658-3.75 0-.313-.03-.626-.122-.938l-4.451 4.563c.305.093.61.124.915.124z" transform="translate(-1239.000000, -524.000000) translate(760.000000, 190.000000) translate(0.000000, 289.000000) translate(0.000000, 3.000000) translate(479.000000, 42.000000) translate(0.213415, 3.187500)"/>
                                <path d="M24.39 9.5c-1.097-1.969-2.652-3.625-4.451-4.844l-.884.907c1.646 1.062 3.049 2.5 4.116 4.25-1.616 2.718-4.147 4.687-7.043 5.624 1.738-1.25 2.866-3.312 2.866-5.624 0-1.188-.305-2.344-.823-3.313l-.915.938c.335.718.518 1.53.518 2.375 0 3.093-2.47 5.624-5.487 5.624-.824 0-1.616-.187-2.317-.53l-.763.78-.152.157-.823.844c1.31.406 2.652.625 4.055.625 4.97 0 9.603-2.75 12.103-7.188l.183-.313-.183-.312zM5.762 15.625L2.713 18.75l.854.875L21.86.875l-.823-.844-.03-.031-3.355 3.438c-1.676-.75-3.506-1.126-5.365-1.126-4.97 0-9.604 2.75-12.104 7.188L0 9.813l.183.312c1.31 2.375 3.293 4.25 5.58 5.5zm6.525-7.375c-.854 0-1.525.688-1.525 1.563h-.61c0-1.22.946-2.188 2.135-2.188v.625zM15.7 5.437l-1.31 1.344c-.58-.468-1.312-.718-2.104-.718-2.013 0-3.659 1.687-3.659 3.75 0 .812.244 1.562.67 2.156l-1.31 1.344c-.762-.97-1.22-2.188-1.22-3.5 0-3.094 2.47-5.626 5.488-5.626 1.311 0 2.5.47 3.445 1.25zm-7.256-1.25C6.707 5.438 5.58 7.47 5.58 9.813c0 1.657.58 3.22 1.555 4.407l-.488.5c-2.134-1.094-3.963-2.75-5.244-4.906C3.05 7.092 5.55 5.125 8.445 4.186z" transform="translate(-1239.000000, -524.000000) translate(760.000000, 190.000000) translate(0.000000, 289.000000) translate(0.000000, 3.000000) translate(479.000000, 42.000000) translate(0.213415, 3.187500)"/>
                            </g>
                        </g>
                    </g>
                </g>
            </g>
        </g>
    </g>
</svg>
